<?xml version="1.0" encoding="UTF-8" standalone="no"?>
<!-- Created with Inkscape (http://www.inkscape.org/) -->

<svg
    xmlns:dc="http://purl.org/dc/elements/1.1/"
    xmlns:cc="http://creativecommons.org/ns#"
    xmlns:rdf="http://www.w3.org/1999/02/22-rdf-syntax-ns#"
    xmlns:svg="http://www.w3.org/2000/svg"
    xmlns="http://www.w3.org/2000/svg"
    xmlns:sodipodi="http://sodipodi.sourceforge.net/DTD/sodipodi-0.dtd"
    xmlns:inkscape="http://www.inkscape.org/namespaces/inkscape"
    width="60px"
    height="40px"
    viewBox="0 0 60 40"
    version="1.1"
    id="SVGRoot"
    inkscape:version="0.92.0 r15299"
    sodipodi:docname="logoModificatoNegativo.svg">
    <sodipodi:namedview
        id="base"
        pagecolor="#ffffff"
        bordercolor="#666666"
        borderopacity="1.0"
        inkscape:pageopacity="0.0"
        inkscape:pageshadow="2"
        inkscape:zoom="1.5084945"
        inkscape:cx="70.488535"
        inkscape:cy="-46.852903"
        inkscape:document-units="px"
        inkscape:current-layer="layer1"
        showgrid="false"
        inkscape:window-width="1920"
        inkscape:window-height="1001"
        inkscape:window-x="-9"
        inkscape:window-y="-9"
        inkscape:window-maximized="1"/>
    <defs
        id="defs6221"/>
    <metadata
        id="metadata6224">
        <rdf:RDF>
            <cc:Work
                rdf:about="">
                <dc:format>image/svg+xml</dc:format>
                <dc:type
                    rdf:resource="http://purl.org/dc/dcmitype/StillImage"/>
                <dc:title></dc:title>
            </cc:Work>
        </rdf:RDF>
    </metadata>
    <g
        id="layer1"
        inkscape:groupmode="layer"
        inkscape:label="Livello 1">
        <g
            id="g6844"
            transform="matrix(0.17715786,0,0,0.17715786,-44.573627,-32.729444)">
            <path
                id="path6816"
                d="m 293.405,197.809 v 128.58 h 25.418 v 32.168 H 251.604 V 197.809 Z"
                inkscape:connector-curvature="0"
                style="fill:#ffffff"/>
            <path
                id="path6818"
                d="m 477.543,246.46 h -38.822 v -11.915 c 0,-5.56 -0.494,-9.101 -1.488,-10.624 -0.992,-1.521 -2.648,-2.283 -4.965,-2.283 -2.516,0 -4.418,1.027 -5.707,3.081 -1.293,2.055 -1.938,5.166 -1.938,9.339 0,5.365 0.725,9.406 2.178,12.121 1.385,2.717 5.322,5.993 11.811,9.828 18.607,11.045 30.326,20.107 35.16,27.19 4.83,7.083 7.248,18.501 7.248,34.253 0,11.453 -1.342,19.893 -4.021,25.318 -2.68,5.428 -7.861,9.98 -15.539,13.652 -7.68,3.674 -16.615,5.51 -26.809,5.51 -11.186,0 -20.735,-2.117 -28.645,-6.354 -7.91,-4.234 -13.09,-9.631 -15.538,-16.184 -2.45,-6.555 -3.675,-15.852 -3.675,-27.9 v -10.523 h 38.822 v 19.559 c 0,6.023 0.547,9.896 1.639,11.617 1.092,1.723 3.029,2.582 5.809,2.582 2.781,0 4.848,-1.094 6.205,-3.277 1.355,-2.184 2.035,-5.426 2.035,-9.73 0,-9.465 -1.289,-15.654 -3.871,-18.566 -2.648,-2.912 -9.17,-7.777 -19.561,-14.596 -10.392,-6.883 -17.275,-11.88 -20.652,-14.992 -3.375,-3.11 -6.173,-7.412 -8.391,-12.907 -2.217,-5.494 -3.325,-12.51 -3.325,-21.05 0,-12.311 1.571,-21.312 4.717,-27.006 3.144,-5.692 8.224,-10.144 15.241,-13.354 7.015,-3.21 15.488,-4.815 25.418,-4.815 10.854,0 20.105,1.755 27.75,5.262 7.646,3.51 12.709,7.928 15.191,13.256 2.482,5.329 3.723,14.381 3.723,27.155 z"
                inkscape:connector-curvature="0"
                style="fill:#ffffff"/>
            <path
                id="path6820"
                d="m 566.383,197.809 23.902,160.748 h -42.717 l -2.246,-28.893 h -14.951 l -2.514,28.893 h -43.215 l 21.322,-160.748 z m -22.154,103.359 c -2.117,-18.207 -4.236,-40.711 -6.365,-67.516 -4.262,30.781 -6.936,53.287 -8.023,67.516 z"
                inkscape:connector-curvature="0"
                style="fill:#ffffff"/>
            <rect
                id="rect6822"
                height="115.291"
                width="41.800999"
                y="197.80901"
                x="330.397"
                style="fill:#f39200"/>
            <rect
                id="rect6824"
                height="32.466999"
                width="41.800999"
                y="326.09"
                x="330.397"
                style="fill:#f39200"/>
            <rect
                id="rect6826"
                height="20.431999"
                width="41.800999"
                y="364.92999"
                x="330.397"
                style="fill:#c6c6c6"/>
            <rect
                id="rect6828"
                height="10.217"
                width="41.800999"
                y="390.63101"
                x="330.397"
                style="fill:#ededed"/>
        </g>
    </g>
</svg>
